<svg width="250" height="250" viewBox="0 0 250 250" fill="none" xmlns="http://www.w3.org/2000/svg">
<path d="M164.533 40.3899C175.012 74.7746 125.917 128 125.917 128C125.917 128 76.4708 73.7072 87.6437 40.3899C98.8166 7.0725 154.053 6.00513 164.533 40.3899Z" fill="black" fill-opacity="0.01"/>
<path fill-rule="evenodd" clip-rule="evenodd" d="M125.917 128C125.917 128 175.012 74.7746 164.533 40.3899C154.053 6.00513 98.8166 7.0725 87.6437 40.3899C76.4708 73.7072 125.917 128 125.917 128ZM126 77.5409C141.228 77.5409 153.573 66.0861 153.573 51.956C153.573 37.8258 141.228 26.3711 126 26.3711C110.772 26.3711 98.4272 37.8258 98.4272 51.956C98.4272 66.0861 110.772 77.5409 126 77.5409Z" fill="black" fill-opacity="0.01"/>
<path fill-rule="evenodd" clip-rule="evenodd" d="M125.917 128C125.917 128 175.012 74.7746 164.533 40.3899C154.053 6.00513 98.8166 7.0725 87.6437 40.3899C76.4708 73.7072 125.917 128 125.917 128ZM126 77.5409C141.228 77.5409 153.573 66.0861 153.573 51.956C153.573 37.8258 141.228 26.3711 126 26.3711C110.772 26.3711 98.4272 37.8258 98.4272 51.956C98.4272 66.0861 110.772 77.5409 126 77.5409Z" fill="black" fill-opacity="0.01"/>
<path fill-rule="evenodd" clip-rule="evenodd" d="M125.917 128C125.917 128 175.012 74.7746 164.533 40.3899C154.053 6.00513 98.8166 7.0725 87.6437 40.3899C76.4708 73.7072 125.917 128 125.917 128ZM126 77.5409C141.228 77.5409 153.573 66.0861 153.573 51.956C153.573 37.8258 141.228 26.3711 126 26.3711C110.772 26.3711 98.4272 37.8258 98.4272 51.956C98.4272 66.0861 110.772 77.5409 126 77.5409Z" fill="black" fill-opacity="0.01"/>
<path d="M101.5 51.0396V67.9474C101.5 77.5741 117.929 82.3809 126 82.3809C134.071 82.3809 150.5 77.5741 150.5 67.9474V51.0396" fill="#3B52A2"/>
<path d="M133.759 24.6477C131.335 23.5627 128.684 22.9999 126 22.9999C123.316 22.9999 120.665 23.5627 118.241 24.6477L94.822 34.9969C89.726 37.2469 89.726 45.0394 94.822 47.2893L118.237 57.6386C120.662 58.724 123.313 59.2872 125.998 59.2872C128.683 59.2872 131.334 58.724 133.759 57.6386L157.178 47.2893C159.724 46.1654 160.998 43.6586 161 41.1504C161.002 38.6374 159.728 36.123 157.178 34.9969L133.759 24.6477Z" fill="white"/>
<path d="M101.5 51.0396V67.9474C101.5 77.5741 117.929 82.3809 126 82.3809C134.071 82.3809 150.5 77.5741 150.5 67.9474V51.0396" fill="black" fill-opacity="0.01"/>
<path d="M133.759 24.6477C131.335 23.5627 128.684 22.9999 126 22.9999C123.316 22.9999 120.665 23.5627 118.241 24.6477L94.822 34.9969C89.726 37.2469 89.726 45.0394 94.822 47.2893L118.237 57.6386C120.662 58.724 123.313 59.2872 125.998 59.2872C128.683 59.2872 131.334 58.724 133.759 57.6386L157.178 47.2893C159.724 46.1654 160.998 43.6586 161 41.1504C161.002 38.6374 159.728 36.123 157.178 34.9969L133.759 24.6477Z" fill="black" fill-opacity="0.01"/>
<path d="M148.944 17.224C148.944 19.4427 150.395 21.3413 153.296 22.92V11.592C152.016 11.976 151.013 12.6373 150.288 13.576C149.563 14.5147 149.157 15.368 149.072 16.136L148.944 17.224ZM157.008 34.632V48.712C158.416 48.1147 159.504 47.2187 160.272 46.024C161.083 44.7867 161.488 43.3787 161.488 41.8C161.488 38.9413 159.995 36.552 157.008 34.632ZM157.008 54.024L156.944 56.456C156.944 57.096 156.709 57.608 156.24 57.992C155.813 58.376 155.216 58.568 154.448 58.568C153.68 58.568 153.296 58.184 153.296 57.416V54.344C149.456 54.344 146.149 53.4053 143.376 51.528C140.645 49.608 139.28 47.048 139.28 43.848V43.784C139.28 42.2053 139.515 40.84 139.984 39.688C140.496 38.4933 141.115 37.6187 141.84 37.064C143.248 35.912 144.528 35.2933 145.68 35.208L146.384 35.144C147.579 35.144 148.667 35.4427 149.648 36.04C150.629 36.5947 151.12 37.384 151.12 38.408C151.12 38.8347 150.928 39.1973 150.544 39.496C149.819 39.9653 149.243 40.5413 148.816 41.224C148.432 41.9067 148.197 42.4827 148.112 42.952L148.048 43.656C148.048 46.7707 149.797 48.648 153.296 49.288V32.712C152.827 32.4987 152.123 32.2 151.184 31.816C150.288 31.432 149.499 31.0693 148.816 30.728C148.133 30.3867 147.408 29.9813 146.64 29.512C145.872 29.0427 144.997 28.3813 144.016 27.528C142.011 25.736 141.008 23.368 141.008 20.424C141.008 16.5413 142.16 13.512 144.464 11.336C146.811 9.11733 149.755 7.73067 153.296 7.176V4.936C153.296 4.38133 153.552 3.93333 154.064 3.592C154.619 3.208 155.237 3.016 155.92 3.016C156.603 3.016 156.944 3.48533 156.944 4.424V6.856C160.101 6.856 162.768 7.47467 164.944 8.712C167.12 9.90666 168.208 11.5707 168.208 13.704C168.208 15.24 167.76 16.52 166.864 17.544C166.011 18.568 164.901 19.08 163.536 19.08C162.896 19.08 162.256 18.952 161.616 18.696C161.019 18.44 160.72 18.056 160.72 17.544L160.976 15.56C160.976 14.1947 160.549 13.192 159.696 12.552C158.885 11.8693 157.968 11.464 156.944 11.336L157.008 24.712C157.093 24.7547 157.221 24.8187 157.392 24.904C157.563 24.9467 158.053 25.16 158.864 25.544C159.717 25.928 160.549 26.3333 161.36 26.76C162.171 27.144 163.216 27.7627 164.496 28.616C165.819 29.4693 166.8 30.3013 167.44 31.112C169.189 33.288 170.064 35.8053 170.064 38.664C170.064 43.144 168.827 46.664 166.352 49.224C163.877 51.784 160.763 53.384 157.008 54.024Z" fill="url(#paint0_linear_795_780)"/>
<path d="M148.944 17.224C148.944 19.4427 150.395 21.3413 153.296 22.92V11.592C152.016 11.976 151.013 12.6373 150.288 13.576C149.563 14.5147 149.157 15.368 149.072 16.136L148.944 17.224ZM157.008 34.632V48.712C158.416 48.1147 159.504 47.2187 160.272 46.024C161.083 44.7867 161.488 43.3787 161.488 41.8C161.488 38.9413 159.995 36.552 157.008 34.632ZM157.008 54.024L156.944 56.456C156.944 57.096 156.709 57.608 156.24 57.992C155.813 58.376 155.216 58.568 154.448 58.568C153.68 58.568 153.296 58.184 153.296 57.416V54.344C149.456 54.344 146.149 53.4053 143.376 51.528C140.645 49.608 139.28 47.048 139.28 43.848V43.784C139.28 42.2053 139.515 40.84 139.984 39.688C140.496 38.4933 141.115 37.6187 141.84 37.064C143.248 35.912 144.528 35.2933 145.68 35.208L146.384 35.144C147.579 35.144 148.667 35.4427 149.648 36.04C150.629 36.5947 151.12 37.384 151.12 38.408C151.12 38.8347 150.928 39.1973 150.544 39.496C149.819 39.9653 149.243 40.5413 148.816 41.224C148.432 41.9067 148.197 42.4827 148.112 42.952L148.048 43.656C148.048 46.7707 149.797 48.648 153.296 49.288V32.712C152.827 32.4987 152.123 32.2 151.184 31.816C150.288 31.432 149.499 31.0693 148.816 30.728C148.133 30.3867 147.408 29.9813 146.64 29.512C145.872 29.0427 144.997 28.3813 144.016 27.528C142.011 25.736 141.008 23.368 141.008 20.424C141.008 16.5413 142.16 13.512 144.464 11.336C146.811 9.11733 149.755 7.73067 153.296 7.176V4.936C153.296 4.38133 153.552 3.93333 154.064 3.592C154.619 3.208 155.237 3.016 155.92 3.016C156.603 3.016 156.944 3.48533 156.944 4.424V6.856C160.101 6.856 162.768 7.47467 164.944 8.712C167.12 9.90666 168.208 11.5707 168.208 13.704C168.208 15.24 167.76 16.52 166.864 17.544C166.011 18.568 164.901 19.08 163.536 19.08C162.896 19.08 162.256 18.952 161.616 18.696C161.019 18.44 160.72 18.056 160.72 17.544L160.976 15.56C160.976 14.1947 160.549 13.192 159.696 12.552C158.885 11.8693 157.968 11.464 156.944 11.336L157.008 24.712C157.093 24.7547 157.221 24.8187 157.392 24.904C157.563 24.9467 158.053 25.16 158.864 25.544C159.717 25.928 160.549 26.3333 161.36 26.76C162.171 27.144 163.216 27.7627 164.496 28.616C165.819 29.4693 166.8 30.3013 167.44 31.112C169.189 33.288 170.064 35.8053 170.064 38.664C170.064 43.144 168.827 46.664 166.352 49.224C163.877 51.784 160.763 53.384 157.008 54.024Z" fill="black" fill-opacity="0.01"/>
<defs>
<linearGradient id="paint0_linear_795_780" x1="142" y1="30.5" x2="167" y2="39.5" gradientUnits="userSpaceOnUse">
<stop stop-color="#FCB13E"/>
<stop offset="1" stop-color="#FEFACE"/>
</linearGradient>
</defs>
</svg>
